name rise45.9887peak57.8056fall74.9286.mot
datacolumns 19
datarows 65
range 18.748266 18.854932
endheader
time	ground_force1_vx	ground_force1_vy	ground_force1_vz	ground_force1_px	ground_force1_py	ground_force1_pz	ground_force2_vx	ground_force2_vy	ground_force2_vz	ground_force2_px	ground_force2_py	ground_force2_pz	ground_torque1_x	ground_torque1_y	ground_torque1_z	ground_torque2_x	ground_torque2_y	ground_torque2_z	
18.748266	-37.726960	797.335272	58.895175	0.106878	0.000000	0.121367	0.000000	0.000000	0.000000	0.000000	0.000000	0.000000	0.000000	22.776952	0.000000	0.000000	0.000000	0.000000	
18.749929	-37.870097	796.001957	58.901969	0.106117	0.000000	0.121331	0.000000	0.000000	0.000000	0.000000	0.000000	0.000000	0.000000	22.678725	0.000000	0.000000	0.000000	0.000000	
18.751593	-38.013137	794.595936	58.894993	0.105373	0.000000	0.121291	0.000000	0.000000	0.000000	0.000000	0.000000	0.000000	0.000000	22.578462	0.000000	0.000000	0.000000	0.000000	
18.753261	-38.156611	793.116785	58.873724	0.104647	0.000000	0.121249	-0.821604	3.644557	1.097636	0.000000	0.000000	0.000000	0.000000	22.476357	0.000000	0.000000	0.320828	0.000000	
18.754935	-38.301065	791.564072	58.837647	0.103940	0.000000	0.121203	-1.335388	7.036476	1.889955	0.000000	0.000000	0.000000	0.000000	22.372602	0.000000	0.000000	0.563808	0.000000	
18.756598	-38.447064	789.937345	58.786256	0.103251	0.000000	0.121153	-1.920135	11.135507	2.814181	0.000000	0.000000	0.000000	0.000000	22.267387	0.000000	0.000000	0.849353	0.000000	
18.758261	-38.595187	788.236134	58.719057	0.102582	0.000000	0.121100	-2.558965	15.897996	3.850584	0.000000	0.000000	0.000000	0.000000	22.160902	0.000000	0.000000	1.172009	0.000000	
18.759928	-38.746025	786.459946	58.635566	0.101932	0.000000	0.121044	-3.230431	21.248957	4.972245	0.000000	0.000000	0.000000	0.000000	22.053337	0.000000	0.000000	1.524107	0.000000	
18.761593	-38.900179	784.608259	58.535314	0.101302	0.000000	0.120983	-3.909900	27.087658	6.146834	0.282588	0.000000	-0.080452	0.000000	21.944874	0.000000	0.000000	3.318738	0.000000	
18.763263	-39.058261	782.680520	58.417850	0.100691	0.000000	0.120919	-4.571302	33.296005	7.339015	0.290029	0.000000	-0.081030	0.000000	21.835696	0.000000	0.000000	4.036256	0.000000	
18.764931	-39.220885	780.676140	58.282736	0.100100	0.000000	0.120851	-5.189055	39.748586	8.513152	0.296832	0.000000	-0.081552	0.000000	21.725979	0.000000	0.000000	4.762960	0.000000	
18.766600	-39.388671	778.594493	58.129555	0.099527	0.000000	0.120778	-5.739886	46.322975	9.635956	0.303078	0.000000	-0.082027	0.000000	21.615895	0.000000	0.000000	5.478996	0.000000	
18.768261	-39.562237	776.434909	57.957909	0.098974	0.000000	0.120702	-6.204323	52.908901	10.678723	0.308832	0.000000	-0.082464	0.000000	21.505609	0.000000	0.000000	6.166420	0.000000	
18.769927	-39.742198	774.196674	57.767421	0.098439	0.000000	0.120622	-6.567717	59.415333	11.618940	0.314147	0.000000	-0.082871	0.000000	21.395283	0.000000	0.000000	6.810313	0.000000	
18.771595	-39.929164	771.879027	57.557739	0.097922	0.000000	0.120538	-6.820725	65.774971	12.441162	0.319067	0.000000	-0.083253	0.000000	21.285068	0.000000	0.000000	7.399504	0.000000	
18.773268	-40.123732	769.481156	57.328532	0.097422	0.000000	0.120450	-6.959297	71.946095	13.137179	0.323629	0.000000	-0.083615	0.000000	21.175110	0.000000	0.000000	7.926871	0.000000	
18.774926	-40.326486	767.002195	57.079498	0.096939	0.000000	0.120357	-6.984238	77.911996	13.705561	0.327864	0.000000	-0.083960	0.000000	21.065548	0.000000	0.000000	8.389266	0.000000	
18.776599	-40.537992	764.441227	56.810359	0.096471	0.000000	0.120261	-6.900438	83.678458	14.150727	0.331799	0.000000	-0.084291	0.000000	20.956510	0.000000	0.000000	8.787114	0.000000	
18.778262	-40.758796	761.797275	56.520869	0.096018	0.000000	0.120160	-6.715913	89.269817	14.481690	0.335457	0.000000	-0.084611	0.000000	20.848116	0.000000	0.000000	9.123786	0.000000	
18.779927	-40.989414	759.069309	56.210809	0.095579	0.000000	0.120056	-6.440751	94.724180	14.710648	0.338859	0.000000	-0.084922	0.000000	20.740478	0.000000	0.000000	9.404839	0.000000	
18.781596	-41.230336	756.256241	55.879991	0.095152	0.000000	0.119947	-6.086077	100.088348	14.851559	0.342021	0.000000	-0.085227	0.000000	20.633698	0.000000	0.000000	9.637195	0.000000	
18.783266	-41.482015	753.356922	55.528260	0.094737	0.000000	0.119835	-5.663114	105.412901	14.918816	0.344960	0.000000	-0.085526	0.000000	20.527867	0.000000	0.000000	9.828355	0.000000	
18.784932	-41.744867	750.370151	55.155493	0.094333	0.000000	0.119719	-5.182397	110.747817	14.926116	0.347690	0.000000	-0.085820	0.000000	20.423067	0.000000	0.000000	9.985704	0.000000	
18.786595	-42.019265	747.294668	54.761604	0.093938	0.000000	0.119598	-4.653179	116.138870	14.885579	0.350222	0.000000	-0.086111	0.000000	20.319370	0.000000	0.000000	10.115934	0.000000	
18.788267	-42.305534	744.129156	54.346539	0.093550	0.000000	0.119474	-4.083042	121.624952	14.807138	0.352569	0.000000	-0.086400	0.000000	20.216835	0.000000	0.000000	10.224636	0.000000	
18.789927	-42.603948	740.872249	53.910283	0.093169	0.000000	0.119347	-3.477699	127.236361	14.698200	0.354740	0.000000	-0.086687	0.000000	20.115512	0.000000	0.000000	10.316040	0.000000	
18.791601	-42.914728	737.522526	53.452855	0.092794	0.000000	0.119215	-2.840980	132.994012	14.563560	0.356745	0.000000	-0.086974	0.000000	20.015442	0.000000	0.000000	10.392912	0.000000	
18.793260	-43.238033	734.078520	52.974315	0.092422	0.000000	0.119080	-2.174960	138.909456	14.405523	0.358592	0.000000	-0.087259	0.000000	19.916652	0.000000	0.000000	10.456585	0.000000	
18.794929	-43.573960	730.538718	52.474759	0.092053	0.000000	0.118942	-1.480197	144.985575	14.224189	0.360290	0.000000	-0.087545	0.000000	19.819159	0.000000	0.000000	10.507093	0.000000	
18.796601	-43.922540	726.901565	51.954325	0.091684	0.000000	0.118800	-0.756043	151.217751	14.017858	0.361845	0.000000	-0.087830	0.000000	19.722970	0.000000	0.000000	10.543389	0.000000	
18.798264	-44.283733	723.165470	51.413187	0.091315	0.000000	0.118655	-0.000994	157.595362	13.783486	0.363265	0.000000	-0.088116	0.000000	19.628081	0.000000	0.000000	10.563602	0.000000	
18.799931	-44.657425	719.328808	50.851561	0.090945	0.000000	0.118507	0.786966	164.103412	13.517168	0.364555	0.000000	-0.088403	0.000000	19.534475	0.000000	0.000000	10.565317	0.000000	
18.801601	-45.043425	715.389925	50.269703	0.090571	0.000000	0.118356	1.610034	170.724158	13.214591	0.365722	0.000000	-0.088690	0.000000	19.442127	0.000000	0.000000	10.545852	0.000000	
18.803265	-45.441465	711.347145	49.667911	0.090192	0.000000	0.118202	2.470306	177.438620	12.871447	0.366772	0.000000	-0.088978	0.000000	19.350998	0.000000	0.000000	10.502500	0.000000	
18.804934	-45.851194	707.198774	49.046521	0.089808	0.000000	0.118045	3.369551	184.227876	12.483763	0.367709	0.000000	-0.089267	0.000000	19.261041	0.000000	0.000000	10.432741	0.000000	
18.806600	-46.272175	702.943108	48.405909	0.089416	0.000000	0.117885	4.309043	191.074093	12.048156	0.368539	0.000000	-0.089556	0.000000	19.172197	0.000000	0.000000	10.334403	0.000000	
18.808267	-46.703888	698.578437	47.746494	0.089016	0.000000	0.117723	5.289462	197.961278	11.562003	0.369266	0.000000	-0.089846	0.000000	19.084397	0.000000	0.000000	10.205769	0.000000	
18.809934	-47.145726	694.103051	47.068732	0.088606	0.000000	0.117559	6.310843	204.875735	11.023530	0.369896	0.000000	-0.090137	0.000000	18.997561	0.000000	0.000000	10.045642	0.000000	
18.811595	-47.596992	689.515254	46.373121	0.088185	0.000000	0.117392	7.372587	211.806265	10.431832	0.370431	0.000000	-0.090428	0.000000	18.911598	0.000000	0.000000	9.853359	0.000000	
18.813264	-48.056901	684.813362	45.660194	0.087751	0.000000	0.117223	8.473503	218.744146	9.786829	0.370877	0.000000	-0.090720	0.000000	18.826408	0.000000	0.000000	9.628772	0.000000	
18.814929	-48.524582	679.995720	44.930525	0.087305	0.000000	0.117052	9.611884	225.682929	9.089184	0.371238	0.000000	-0.091011	0.000000	18.741880	0.000000	0.000000	9.372203	0.000000	
18.816600	-48.999073	675.060709	44.184725	0.086844	0.000000	0.116880	10.785597	232.618115	8.340192	0.371516	0.000000	-0.091303	0.000000	18.657894	0.000000	0.000000	9.084375	0.000000	
18.818261	-49.479325	670.006752	43.423440	0.086368	0.000000	0.116705	11.992188	239.546762	7.541651	0.371716	0.000000	-0.091594	0.000000	18.574319	0.000000	0.000000	8.766335	0.000000	
18.819930	-49.964204	664.832331	42.647350	0.085876	0.000000	0.116530	13.228975	246.467057	6.695732	0.371842	0.000000	-0.091885	0.000000	18.491016	0.000000	0.000000	8.419374	0.000000	
18.821597	-50.452492	659.535994	41.857170	0.085368	0.000000	0.116352	14.493148	253.377903	5.804859	0.371896	0.000000	-0.092176	0.000000	18.407834	0.000000	0.000000	8.044957	0.000000	
18.823262	-50.942888	654.116369	41.053649	0.084841	0.000000	0.116174	15.781842	260.278545	4.871598	0.371881	0.000000	-0.092465	0.000000	18.324616	0.000000	0.000000	7.644645	0.000000	
18.824933	-51.434013	648.572177	40.237563	0.084296	0.000000	0.115994	17.092204	267.168265	3.898576	0.371802	0.000000	-0.092753	0.000000	18.241193	0.000000	0.000000	7.220051	0.000000	
18.826598	-51.924412	642.902245	39.409722	0.083733	0.000000	0.115813	18.421438	274.046142	2.888408	0.371660	0.000000	-0.093040	0.000000	18.157388	0.000000	0.000000	6.772791	0.000000	
18.828261	-52.412556	637.105521	38.570958	0.083150	0.000000	0.115632	19.766837	280.910896	1.843659	0.371460	0.000000	-0.093325	0.000000	18.073017	0.000000	0.000000	6.304457	0.000000	
18.829933	-52.896849	631.181087	37.722135	0.082547	0.000000	0.115449	21.125799	287.760806	0.766817	0.371203	0.000000	-0.093608	0.000000	17.987887	0.000000	0.000000	5.816599	0.000000	
18.831599	-53.375630	625.128170	36.864136	0.081924	0.000000	0.115266	22.495830	294.593696	-0.339710	0.370892	0.000000	-0.093888	0.000000	17.901796	0.000000	0.000000	5.310723	0.000000	
18.833264	-53.847180	618.946161	35.997870	0.081281	0.000000	0.115083	23.874537	301.406971	-1.473587	0.370530	0.000000	-0.094166	0.000000	17.814534	0.000000	0.000000	4.788288	0.000000	
18.834929	-54.309724	612.634622	35.124263	0.080617	0.000000	0.114899	25.259614	308.197701	-2.632539	0.370120	0.000000	-0.094441	0.000000	17.725887	0.000000	0.000000	4.250721	0.000000	
18.836601	-54.761439	606.193299	34.244261	0.079933	0.000000	0.114715	26.648828	314.962729	-3.814321	0.369664	0.000000	-0.094713	0.000000	17.635630	0.000000	0.000000	3.699425	0.000000	
18.838261	-55.200457	599.622132	33.358825	0.079227	0.000000	0.114530	28.039998	321.698792	-5.016698	0.369165	0.000000	-0.094982	0.000000	17.543534	0.000000	0.000000	3.135793	0.000000	
18.839928	-55.624875	592.921261	32.468930	0.078501	0.000000	0.114346	29.430981	328.402645	-6.237422	0.368624	0.000000	-0.095247	0.000000	17.449364	0.000000	0.000000	2.561223	0.000000	
18.841598	-56.032755	586.091032	31.575564	0.077754	0.000000	0.114161	30.819656	335.071177	-7.474208	0.368045	0.000000	-0.095507	0.000000	17.352879	0.000000	0.000000	1.977128	0.000000	
18.843267	-56.422140	579.132001	30.679723	0.076987	0.000000	0.113977	32.203913	341.701509	-8.724722	0.367428	0.000000	-0.095764	0.000000	17.253832	0.000000	0.000000	1.384944	0.000000	
18.844933	-56.791050	572.044935	29.782409	0.076199	0.000000	0.113793	33.581649	348.291078	-9.986572	0.366777	0.000000	-0.096015	0.000000	17.151973	0.000000	0.000000	0.786135	0.000000	
18.846595	-57.137498	564.830814	28.884630	0.075392	0.000000	0.113610	34.950765	354.837687	-11.257304	0.366093	0.000000	-0.096262	0.000000	17.047050	0.000000	0.000000	0.182191	0.000000	
18.848259	-57.459494	557.490829	27.987397	0.074565	0.000000	0.113426	36.309168	361.339548	-12.534408	0.365379	0.000000	-0.096503	0.000000	16.938806	0.000000	0.000000	-0.425371	0.000000	
18.849926	-57.755053	550.026380	27.091719	0.073718	0.000000	0.113244	37.654779	367.795289	-13.815326	0.364635	0.000000	-0.096739	0.000000	16.826985	0.000000	0.000000	-1.035015	0.000000	
18.851600	-58.022206	542.439079	26.198605	0.072853	0.000000	0.113061	38.985538	374.203949	-15.097466	0.363865	0.000000	-0.096969	0.000000	16.711328	0.000000	0.000000	-1.645196	0.000000	
18.853266	-58.259006	534.730748	25.309056	0.071969	0.000000	0.112880	40.299421	380.564963	-16.378219	0.363070	0.000000	-0.097194	0.000000	16.591578	0.000000	0.000000	-2.254367	0.000000	
18.854932	-58.463541	526.903428	24.424068	0.071068	0.000000	0.112699	41.594444	386.878125	-17.654978	0.362251	0.000000	-0.097412	0.000000	16.467482	0.000000	0.000000	-2.860996	0.000000	
